<svg id="Layer_1" data-name="Layer 1" xmlns="http://www.w3.org/2000/svg" viewBox="0 0 199.8 78.24"><defs><style>.cls-1{fill:#151515;}</style></defs><path class="cls-1" d="M65.15,24.79C72.8,24.79,79,32.2,79,39.92c0,8-4.72,15.21-13.86,15.21-7.73,0-13.94-7.41-13.94-15.21S55.93,24.79,65.15,24.79Zm0,28.89c5.17,0,9.57-4.72,9.57-13.72s-4.36-13.65-9.57-13.65S55.54,31,55.54,40,59.9,53.68,65.15,53.68Z" transform="translate(-0.2 -9.65)"/><path class="cls-1" d="M85.07,54.46v-26c0-2.41,1.88-3,3.44-3,2.34,0,3.15,1.06,4.85,3.83l11,18.36h.14V25.46h1.74V53.72c0,1.2-.39,1.41-1,1.41-1,0-1.56-1.49-2.48-3L89.18,30c-.53-1-.67-1.48-1.67-1.48-.53,0-.67.39-.67,1.34V54.46Z" transform="translate(-0.2 -9.65)"/><path class="cls-1" d="M129.2,9.65h.15l17.83,44.81h-4.86L137,40.85H119.49L114,54.46h-2.9Zm-8.86,29.07H136l-7.73-20.17Z" transform="translate(-0.2 -9.65)"/><path class="cls-1" d="M170.93,67.4v-14a14.45,14.45,0,0,1-7,1.73c-7.87,0-13.4-6.8-13.4-14.39,0-8.83,4.43-16,13.64-16a10.37,10.37,0,0,1,9.43,5.78l-1.48,1.27c-1.63-3.68-4.51-5.6-8.16-5.6-5.46,0-9.14,4.36-9.14,14.82,0,7.27,3.58,12.58,9.89,12.58a8.31,8.31,0,0,0,6.2-2.76V41.17h4.33V67.4Z" transform="translate(-0.2 -9.65)"/><path class="cls-1" d="M199.79,54.46H187.73c-3,0-5.7-.28-5.7-3.69V29.89c0-2.76,1.13-4.43,5.24-4.43H200V27H189.29c-2.41,0-3,.67-3,2.55v9.08h11v1.49h-11V50.7c0,1.14.35,2.31,1.8,2.31h11.63l0,1.45Z" transform="translate(-0.2 -9.65)"/><path class="cls-1" d="M19.73,17.66a9.38,9.38,0,0,0-.32-2.8,3.21,3.21,0,0,0-.88-1.59,2.46,2.46,0,0,0-1.46-.64,7.56,7.56,0,0,0-1.84-.21V11.14h8.15V56.8l-3.5.42-.15-39.56" transform="translate(-0.2 -9.65)"/><path class="cls-1" d="M36.82,32v-.14c4.43-1.14,7.2-4.12,7.2-9.22,0-7.94-6.24-11.45-17.62-11.45H22.82V13.3h3.37c8.54,0,13.11,2.55,13.11,9.15,0,5.39-3.29,8.47-10.92,8.47H22.82v2.16h6.45c8.9,0,12.58,4.29,12.58,10.25,0,6.24-3.51,9.29-12.12,9.29H22.82v2.16H33.17c8,0,13.65-4.11,13.65-11.63C46.85,37.12,42.28,33.37,36.82,32Z" transform="translate(-0.2 -9.65)"/><path class="cls-1" d="M27.14,62.4l1.46,1.81c4.92-2.94,13.61-2.66,16.45,2.23a12.29,12.29,0,0,1-10.6-2.83L31,64.85c2.66,5.74,13.79,7.09,19.68,3.47C48.94,60,33.81,56.41,27.14,62.4Z" transform="translate(-0.2 -9.65)"/><path class="cls-1" d="M23.7,62.08l-1.27,2.38c4.32,2.87,6.7,12.05,2.76,17a14.3,14.3,0,0,1-.71-11.94c-.67-.78-1.66-2-2.27-2.77C18.35,73,20.16,84.59,25.44,87.89,32.71,82.78,32,65.52,23.7,62.08Z" transform="translate(-0.2 -9.65)"/><path class="cls-1" d="M20,56.8c-1.31,7.34-6,12-14.43,10.88a9.13,9.13,0,0,1,6.17-4c1.35-.29,3-.07,4.11-.53L17,60.73C8.85,60.06,2.36,63.18.2,69.31A11.73,11.73,0,0,0,8,71.72c9.93.08,13.94-6.09,15.46-14.89L20,56.8Z" transform="translate(-0.2 -9.65)"/><path class="cls-1" d="M123.57,64v3.08h-1v-6.2a1.5,1.5,0,0,0,0-.46l-.1-.36a.55.55,0,0,0-.25-.25.8.8,0,0,0-.43-.07h-.21v-.21H125a3.1,3.1,0,0,1,.53.07c.22,0,.39.11.53.14a1.26,1.26,0,0,1,.5.29,1.15,1.15,0,0,1,.43.42,2.33,2.33,0,0,1,.28.57,2.57,2.57,0,0,1,.11.78,2.06,2.06,0,0,1-.71,1.59,1.93,1.93,0,0,1-.68.36c-.24.07-.46.14-.63.17a2.28,2.28,0,0,1-.5,0l-1.24,0Zm.88-.39a.91.91,0,0,0,.43-.07,2.92,2.92,0,0,0,.46-.18,1.4,1.4,0,0,0,.43-.36,1.47,1.47,0,0,0,.32-.53,2.3,2.3,0,0,0,.14-.71,1.7,1.7,0,0,0-.14-.71,1.47,1.47,0,0,0-.32-.53,4.14,4.14,0,0,0-.43-.35.93.93,0,0,0-.46-.18,1.55,1.55,0,0,0-.43-.07,3.15,3.15,0,0,0-.85.11v3.43A2.35,2.35,0,0,0,124.45,63.61Z" transform="translate(-0.2 -9.65)"/><path class="cls-1" d="M139,66.87v.21a1.59,1.59,0,0,1-.46.07,2.37,2.37,0,0,1-.46,0,5.09,5.09,0,0,1-.49-.18,2.21,2.21,0,0,1-.54-.46,2.62,2.62,0,0,1-.42-.78L136.3,65h-3.23l-.92,2.17h-.53l3.19-7.56h.35l2.52,6.14a2.89,2.89,0,0,0,.53.92A1.47,1.47,0,0,0,139,66.87Zm-4.32-5.71-1.42,3.33H136Z" transform="translate(-0.2 -9.65)"/><path class="cls-1" d="M147.18,65.56l-1.14-2h-.81v3.51h-1V60.91a2,2,0,0,0,0-.46c0-.11-.08-.25-.11-.35a.75.75,0,0,0-.25-.25.78.78,0,0,0-.42-.07h-.25v-.22h3.44a3.42,3.42,0,0,1,.53.08,2.17,2.17,0,0,1,.53.14,2.13,2.13,0,0,1,.5.25,1.45,1.45,0,0,1,.42.35,1.77,1.77,0,0,1,.28.53,1.93,1.93,0,0,1,.11.71c0,1-.6,1.67-1.84,2l1.2,2a3.52,3.52,0,0,0,.78,1,1.5,1.5,0,0,0,.78.32v.22a1.68,1.68,0,0,1-.67.1,1.63,1.63,0,0,1-1.06-.35A7.64,7.64,0,0,1,147.18,65.56Zm-1.1-2.34a.89.89,0,0,0,.42-.07A3,3,0,0,0,147,63a1,1,0,0,0,.42-.32,1.89,1.89,0,0,0,.32-.46,1.7,1.7,0,0,0,.14-.6,1.33,1.33,0,0,0-.14-.64,1.13,1.13,0,0,0-.32-.46,2.34,2.34,0,0,0-.42-.32,4.87,4.87,0,0,0-.47-.18,1.54,1.54,0,0,0-.42-.07,3.1,3.1,0,0,0-.85.11v3A2.59,2.59,0,0,0,146.08,63.22Z" transform="translate(-0.2 -9.65)"/><path class="cls-1" d="M155.44,65.73v-6.2h1v6.2a1.75,1.75,0,0,0,.17.85.69.69,0,0,0,.64.29h.25v.21h-1a1.53,1.53,0,0,1-.64-.11.75.75,0,0,1-.32-.39A2.5,2.5,0,0,1,155.44,65.73Z" transform="translate(-0.2 -9.65)"/><path class="cls-1" d="M167.7,65.17a2.06,2.06,0,0,1-.63,1.56,2.46,2.46,0,0,1-1.74.56,5.22,5.22,0,0,1-1.24-.17,3,3,0,0,1-1-.5.86.86,0,0,1-.39-.75V64.63h.21a2.45,2.45,0,0,0,.74,1.63,2.18,2.18,0,0,0,1.56.54,1.76,1.76,0,0,0,1.07-.32,1,1,0,0,0,.42-.85,1.4,1.4,0,0,0-.28-.85,3.64,3.64,0,0,0-1-.75l-1.42-.85a3,3,0,0,1-1-.89,1.89,1.89,0,0,1-.31-1.09,1.8,1.8,0,0,1,.6-1.42,2.37,2.37,0,0,1,1.59-.53,3.13,3.13,0,0,1,1.14.17,3.38,3.38,0,0,1,1,.5.88.88,0,0,1,.39.74V61.9h-.22a2.49,2.49,0,0,0-.74-1.63,2.12,2.12,0,0,0-1.53-.49,1.36,1.36,0,0,0-.92.32,1,1,0,0,0-.39.85,1.17,1.17,0,0,0,.29.78,3.56,3.56,0,0,0,1,.71l1.42.85a3.71,3.71,0,0,1,1.1.85A1.7,1.7,0,0,1,167.7,65.17Z" transform="translate(-0.2 -9.65)"/></svg>